<svg width="512" height="512" viewBox="0 0 512 512" fill="none" xmlns="http://www.w3.org/2000/svg">
<g clip-path="url(#clip0_9_2)">
<path d="M206.93 260.651C206.696 260.651 206.429 260.617 206.161 260.55C204.388 260.115 203.284 258.341 203.719 256.567C205.759 248.13 212.483 242.238 220.111 242.238C227.503 242.238 234.026 247.695 236.301 255.796C236.803 257.537 235.766 259.378 234.026 259.847C232.253 260.349 230.447 259.311 229.979 257.57C228.507 252.348 224.559 248.833 220.144 248.833C215.595 248.833 211.48 252.649 210.175 258.106C209.807 259.613 208.469 260.617 206.964 260.617L206.93 260.651Z" fill="black"/>
<path d="M281.357 260.651C280.989 260.651 280.621 260.584 280.253 260.45C278.547 259.847 277.644 257.973 278.246 256.232C280.822 249.034 286.676 244.381 293.199 244.381C299.722 244.381 305.609 249.034 308.152 256.232C308.754 257.939 307.884 259.847 306.145 260.45C304.439 261.053 302.532 260.182 301.93 258.441C300.324 253.888 296.878 250.976 293.166 250.976C289.453 250.976 286.007 253.922 284.402 258.441C283.933 259.78 282.662 260.651 281.291 260.651L281.357 260.651Z" fill="black"/>
<path d="M237.871 328.408C223.788 328.408 219.104 317.929 218.937 317.495C218.201 315.821 219.004 313.879 220.643 313.176C222.283 312.473 224.223 313.243 224.959 314.884C225.126 315.218 228.304 322.148 238.44 321.847C248.542 321.579 252.824 308.757 252.857 308.589C253.292 307.217 254.363 306.179 256.035 306.313C257.507 306.346 258.745 307.317 259.146 308.723C259.28 309.225 262.859 320.976 275.505 321.512C287.681 322.081 290.022 314.381 290.123 314.046C290.591 312.306 292.397 311.268 294.137 311.736C295.876 312.205 296.947 313.946 296.512 315.687C295.375 320.24 289.621 328.743 275.236 328.107C265.702 327.705 259.514 322.382 256.035 317.16C252.957 322.148 247.438 328.175 238.606 328.409H237.837L237.871 328.408Z" fill="black"/>
<path d="M273.461 282.617C273.461 289.58 265.667 298.251 255.999 298.251C246.365 298.251 238.537 289.547 238.537 282.617C238.537 275.653 246.331 273.109 255.999 273.109C265.633 273.109 273.461 275.687 273.461 282.617Z" fill="black"/>
<path d="M352.778 311.267C366.025 292.72 371.912 276.45 372.079 276.082C372.481 274.91 372.213 273.638 371.377 272.734C370.541 271.83 369.303 271.462 368.099 271.797C364.519 272.768 361.241 273.471 358.163 273.973C359.668 271.228 360.638 267.98 361.04 264.264C361.174 263.093 360.672 261.954 359.735 261.251C358.799 260.548 357.561 260.381 356.49 260.85C355.119 261.419 353.681 262.021 352.242 262.557C348.797 234.067 340.634 210.833 327.923 193.492C348.095 170.659 365.289 165.94 386.898 160.048C399.477 156.599 413.726 152.716 430.252 144.48C444.536 137.316 468.855 118.434 473.304 98.3478C475.177 89.9448 473.404 82.2115 468.052 75.4486C460.625 66.0743 445.672 62.4259 425.969 65.1042C379.438 71.465 315.481 111.203 291.229 164.735C281.495 160.918 270.723 158.91 259.249 158.575C260.788 156.767 262.36 154.926 263.999 153.084C264.969 152.013 265.136 150.44 264.4 149.201C263.665 147.962 262.193 147.326 260.788 147.661C250.987 150.038 240.416 153.185 229.978 157.771C217.668 139.693 170.836 75.1814 129.124 74.2772C96.007 73.6746 76.7388 91.2174 71.2864 126.737C68.8443 142.606 71.7547 170.594 89.9191 178.093C93.4316 179.532 97.3119 180.302 101.46 180.302C115.577 180.302 132.537 171.598 147.323 152.716C161.473 158.374 177.496 170.057 191.713 185.022C175.623 203.267 164.35 230.05 163.815 269.989C161.607 269.588 159.366 269.186 156.89 268.684C155.519 268.416 154.114 269.019 153.378 270.257C152.675 271.462 152.809 273.002 153.712 274.074C157.526 278.493 161.306 282.309 165.152 285.624C161.406 284.954 157.793 284.017 154.314 282.812C153.177 282.41 151.906 282.678 151.003 283.515C150.099 284.352 149.765 285.591 150.066 286.796C152.207 294.797 155.552 303.099 160.001 311.202C125.747 314.951 38.0724 327.405 38.0724 356.196C38.0724 366.306 49.1452 375.379 70.7881 383.212C69.6507 389.908 70.487 396.202 73.3973 400.956C76.0066 405.207 80.0542 407.986 84.8375 408.756C91.1264 409.827 95.4418 407.283 97.9844 404.404C101.162 407.35 106.515 410.999 113.104 410.095C118.758 409.325 122.37 405.877 124.578 402.73C127.421 406.446 132.038 410.932 138.427 411.97C139.598 412.171 140.702 412.237 141.739 412.237C145.251 412.237 148.195 411.2 150.503 409.124C152.677 407.182 154.182 404.404 155.119 400.654C186.029 404.203 220.852 406.111 256.076 406.111C291.301 406.111 326.124 404.203 357.033 400.654C357.969 404.404 359.475 407.182 361.649 409.124C363.957 411.2 366.901 412.237 370.413 412.237C371.45 412.237 372.587 412.137 373.725 411.97C380.114 410.932 384.731 406.446 387.574 402.73C389.781 405.91 393.394 409.325 399.047 410.095C405.537 410.999 410.989 407.383 414.201 404.404C416.743 407.283 421.058 409.827 427.348 408.756C432.098 407.953 436.145 405.207 438.754 400.956C441.698 396.202 442.501 389.908 441.364 383.212C463.006 375.379 474.079 366.306 474.079 356.196C474.079 327.573 387.27 315.085 352.852 311.268L352.778 311.267ZM151.232 147.256C154.343 142.737 157.354 137.782 160.198 132.292C161.034 130.685 160.398 128.676 158.759 127.839C157.154 127.002 155.147 127.638 154.31 129.279C135.577 165.87 108.381 178.592 92.3575 171.997C77.2709 165.77 75.9992 138.987 77.7394 127.739C79.5458 115.887 85.2994 79.8653 128.921 80.8689C166.955 81.6724 212.65 144.377 223.857 160.614C214.09 165.535 204.589 171.862 196.126 180.232C181.708 165.067 165.953 153.516 151.233 147.289L151.232 147.256ZM158.124 290.844C164.011 292.351 170.233 293.221 176.69 293.456C178.228 293.623 179.533 292.552 179.968 291.112C180.403 289.673 179.834 288.133 178.563 287.363C174.08 284.584 169.732 281.169 165.416 276.951C173.043 278.156 179.265 278.692 184.349 278.558C186.189 278.491 187.594 276.985 187.561 275.177C187.527 273.369 186.289 271.963 184.182 271.963C180.335 272.064 175.685 271.695 170.266 270.959C170.768 209.058 196.091 173.368 251.956 156.801C241.552 169.355 242.623 171.733 243.125 172.837C243.727 174.244 245.466 175.214 247.039 174.913C250.685 174.244 254.632 174.444 258.981 175.549C253.093 178.361 247.808 182.747 243.157 188.605C242.02 190.011 242.254 192.087 243.693 193.225C245.098 194.363 247.172 194.129 248.309 192.69C254.397 185.023 261.355 180.503 269.618 178.896C271.023 178.629 272.093 177.49 272.261 176.051C272.428 174.645 271.658 173.272 270.354 172.67C263.429 169.523 257.241 167.949 251.754 167.916C252.357 167.045 253.093 166.074 253.895 165.037C267.711 164.769 280.423 167.079 291.562 172C292.364 172.368 293.301 172.368 294.104 172.033C294.94 171.699 295.576 171.063 295.944 170.259C318.223 117.33 381.245 77.8619 426.805 71.597C444.132 69.2201 456.911 72.0322 462.832 79.5313C466.947 84.7539 468.251 90.4114 466.813 96.906C463.233 113.009 443.43 129.748 429.28 137.448C440.42 124.023 447.98 107.016 441.255 96.1364C439.683 93.5586 436.305 90.4451 429.313 90.2442C429.079 90.2442 428.812 90.2108 428.577 90.2108C400.277 90.2108 331.603 137.248 305.107 175.01C304.07 176.517 304.438 178.559 305.91 179.597C306.478 179.999 307.147 180.199 307.817 180.199C308.854 180.199 309.857 179.697 310.526 178.793C337.589 140.26 404.461 96.7723 428.576 96.7723H429.145C434.062 96.9063 435.266 98.8814 435.668 99.5175C442.024 109.829 427.873 133.163 411.783 145.282C402.316 148.897 393.618 151.308 385.122 153.618C362.742 159.744 343.407 165 321.128 191.146C320.125 192.352 320.091 194.093 321.028 195.298C334.074 212.103 342.404 235.271 345.782 264.196C345.815 264.33 345.849 264.43 345.882 264.531C342.269 265.434 338.724 265.736 335.546 264.865C333.806 264.397 331.967 265.434 331.498 267.175C331.03 268.916 332.067 270.724 333.806 271.226C340.062 272.934 346.785 271.461 353.041 269.218C351.971 271.829 350.365 273.804 348.191 275.244C346.953 276.047 346.418 277.587 346.853 278.993C347.287 280.399 348.391 281.169 350.097 281.303C354.312 281.169 358.628 280.634 363.378 279.663C354.747 298.879 322.299 359.206 254.628 359.24H254.561C199.901 359.24 169.025 323.62 158.083 290.844L158.124 290.844ZM146.014 404.17C144.542 405.476 142.434 405.878 139.39 405.409C131.763 404.17 127.214 394.729 127.18 394.629C126.645 393.457 125.474 392.754 124.203 392.754H123.969C122.631 392.855 121.46 393.759 121.059 395.064C120.958 395.366 118.65 402.664 112.16 403.501C105.436 404.405 100.118 397.04 100.05 396.973C99.3478 396.002 98.1435 395.466 96.9058 395.667C95.7016 395.834 94.6645 396.671 94.2631 397.843C93.9286 398.747 92.0887 403.267 85.8333 402.229C82.9564 401.76 80.5813 400.12 78.9422 397.475C76.3329 393.223 75.9984 386.996 78.0725 380.401C82.1535 367.311 97.6755 353.183 113.966 354.121C133.936 355.159 148.522 367.312 149.458 383.715C150.094 394.662 148.924 401.526 146.014 404.17ZM355.96 383.347C355.726 387.431 355.759 390.946 355.993 394.093C344.62 395.399 332.71 396.47 320.435 397.274C320.802 395.265 321.037 393.223 321.037 391.348C321.104 380.735 315.885 369.118 304.11 368.984C292.703 368.851 280.192 376.685 274.672 380.602C277.047 384.15 278.352 388.302 278.352 392.855C278.352 395.031 277.984 397.106 277.382 399.082C275.04 399.149 272.732 399.182 270.39 399.216C271.26 397.274 271.829 395.165 271.829 392.855C271.829 384.151 264.704 377.087 256.006 377.087C247.308 377.087 240.183 384.151 240.183 392.855C240.183 395.165 240.751 397.274 241.621 399.216C239.28 399.182 236.905 399.115 234.563 399.082C233.961 397.106 233.593 394.997 233.593 392.855C233.593 388.302 234.897 384.151 237.273 380.602C231.753 376.718 219.275 368.884 207.902 368.984C196.093 369.118 190.841 380.702 190.975 391.348C190.975 393.223 191.209 395.231 191.577 397.274C179.3 396.437 167.392 395.399 156.018 394.093C156.252 390.98 156.286 387.465 156.052 383.347C155.617 375.546 152.673 368.583 147.89 362.859C157.189 351.041 168.697 343.14 182.211 339.357C199.505 354.891 223.39 365.838 254.634 365.838H254.7C285.744 365.838 309.695 353.92 327.658 338.788C342.11 342.303 354.353 350.438 364.154 362.892C359.37 368.583 356.427 375.58 355.992 383.347H355.96ZM433.066 397.474C431.46 400.119 429.052 401.759 426.175 402.228C419.986 403.233 418.08 398.78 417.745 397.876C417.344 396.704 416.34 395.867 415.136 395.7C413.932 395.533 412.694 396.035 411.958 397.039C411.891 397.106 406.472 404.438 399.848 403.567C393.358 402.697 391.051 395.432 390.983 395.131C390.582 393.825 389.444 392.888 388.073 392.787C386.701 392.653 385.43 393.423 384.828 394.662C384.794 394.763 380.212 404.203 372.618 405.442C369.641 405.944 367.466 405.542 365.994 404.203C363.084 401.592 361.913 394.695 362.549 383.748C363.486 367.344 378.104 355.158 398.074 354.154C398.543 354.121 398.977 354.121 399.446 354.121C415.034 354.121 430.021 367.712 433.968 380.434C436.008 387.029 435.707 393.256 433.064 397.508L433.066 397.474Z" fill="black"/>
</g>
<defs>
<clipPath id="clip0_9_2">
<rect width="512" height="512" fill="white"/>
</clipPath>
</defs>
</svg>
